<?xml version="1.0" standalone="no"?>
<!DOCTYPE svg PUBLIC "-//W3C//DTD SVG 20010904//EN"
 "http://www.w3.org/TR/2001/REC-SVG-20010904/DTD/svg10.dtd">
<svg version="1.0" xmlns="http://www.w3.org/2000/svg"
 width="500.000000pt" height="786.000000pt" viewBox="0 0 500.000000 786.000000"
 preserveAspectRatio="xMidYMid meet">
<metadata>
Created by potrace 1.13, written by Peter Selinger 2001-2015
</metadata>
<g transform="translate(0.000000,786.000000) scale(0.100000,-0.100000)"
fill="#000000" stroke="none">
<path d="M2209 7596 c-2 -2 -72 -16 -156 -30 -128 -22 -171 -35 -264 -76 -61
-27 -127 -61 -146 -76 -39 -29 -47 -29 -213 -1 -98 17 -108 13 -112 -43 l-3
-39 -75 34 c-90 42 -109 43 -149 9 -36 -30 -39 -55 -16 -132 30 -99 194 -317
297 -395 29 -21 54 -43 56 -48 2 -5 -8 -32 -21 -61 -14 -29 -38 -99 -53 -155
-27 -100 -28 -102 -55 -96 -39 8 -68 -13 -92 -65 -18 -38 -22 -66 -21 -147 0
-88 3 -107 27 -160 15 -32 34 -66 41 -75 10 -10 15 -54 18 -140 4 -139 3 -137
92 -243 50 -61 192 -181 266 -225 160 -98 340 -172 414 -172 20 0 26 -5 26
-22 0 -20 -12 -27 -78 -49 -42 -15 -131 -47 -197 -72 -66 -25 -178 -68 -250
-95 -212 -80 -170 -29 -407 -502 l-207 -414 24 -32 c14 -18 22 -39 19 -47 -3
-8 -20 -71 -38 -140 -26 -102 -41 -138 -78 -194 -26 -37 -76 -117 -113 -178
-126 -206 -108 -187 -166 -179 -42 6 -68 1 -152 -26 -133 -44 -138 -48 -92
-88 20 -18 42 -32 50 -32 23 0 18 -20 -14 -49 -40 -37 -67 -121 -55 -169 16
-65 135 -118 286 -129 76 -6 78 -5 145 35 86 51 103 70 139 157 26 63 43 85
184 226 222 223 253 263 309 399 35 84 53 116 67 119 24 4 84 49 84 62 0 13
101 201 106 197 2 -2 -7 -91 -20 -198 -13 -107 -27 -229 -30 -270 -4 -41 -19
-146 -33 -232 l-25 -157 21 -34 c12 -19 46 -56 77 -82 50 -43 55 -51 50 -79
-3 -17 -8 -51 -10 -76 -3 -25 -17 -85 -31 -135 -99 -335 -147 -521 -166 -630
-6 -38 -15 -78 -20 -87 -14 -26 59 -109 166 -188 52 -39 95 -74 95 -79 0 -5
-11 -52 -25 -104 -23 -87 -37 -247 -37 -442 0 -22 49 -302 57 -322 2 -7 -5
-17 -15 -23 -11 -6 -26 -23 -34 -39 -13 -25 -13 -30 4 -57 l19 -29 -28 -25
c-76 -70 -98 -271 -50 -452 12 -47 42 -64 137 -78 61 -10 88 -8 189 9 195 35
215 40 250 67 51 39 66 76 59 146 -7 57 -49 191 -68 215 -30 37 -15 317 26
482 13 53 27 119 30 146 20 155 49 334 58 358 9 24 16 27 54 27 78 0 84 6 146
146 31 71 72 183 93 249 26 87 43 126 62 143 31 28 30 30 79 -98 90 -231 147
-368 170 -407 21 -36 30 -42 62 -45 l37 -3 2 -120 c3 -169 57 -490 89 -526 8
-8 14 -23 14 -32 0 -8 14 -73 31 -143 24 -100 30 -140 25 -183 -4 -31 -9 -80
-12 -109 -7 -61 10 -161 36 -213 17 -32 28 -39 101 -63 83 -28 255 -46 365
-40 58 4 135 29 168 55 24 19 26 26 26 107 -1 124 -20 192 -72 258 -24 31 -48
61 -53 69 -6 7 -27 20 -48 29 -36 15 -37 16 -31 55 6 37 4 41 -21 53 -26 12
-27 14 -21 73 4 33 11 76 15 95 5 19 19 91 32 159 21 115 21 133 11 238 -7 62
-25 164 -42 226 -16 63 -27 123 -24 133 3 11 25 32 50 48 24 15 66 53 93 83
47 53 48 55 39 96 -26 121 -208 690 -263 826 l-43 106 36 16 c62 28 74 48 70
121 -5 64 -26 201 -54 338 -8 41 -22 134 -30 205 -8 72 -21 184 -28 250 -8 66
-13 121 -11 123 2 2 14 -18 27 -45 15 -30 32 -49 45 -51 15 -2 35 -35 79 -125
120 -250 161 -318 229 -383 79 -75 188 -159 273 -211 57 -34 65 -44 87 -98 25
-62 67 -108 127 -138 96 -48 194 -87 219 -87 37 0 152 46 173 69 23 25 44 135
39 201 -4 65 -22 95 -60 104 -60 15 -97 56 -50 56 25 0 103 72 94 87 -3 5 -66
8 -139 6 -73 -2 -146 -1 -163 2 -26 5 -50 35 -176 223 l-146 217 -32 125 c-57
221 -58 226 -49 251 10 27 5 53 -22 113 -10 22 -26 64 -36 91 -10 28 -44 103
-76 168 -32 65 -70 146 -84 180 -54 129 -150 261 -203 278 -20 7 -62 25 -94
41 -32 16 -90 40 -130 55 -39 14 -105 41 -147 60 -41 19 -131 55 -200 80 -69
25 -128 49 -131 52 -4 3 -10 20 -14 38 -6 31 -5 32 62 66 38 19 121 69 185
111 87 58 124 89 149 126 19 27 37 50 40 50 4 0 14 -21 24 -47 10 -27 21 -52
25 -56 4 -4 35 29 68 75 145 196 230 537 220 884 -4 131 -10 176 -32 259 -35
130 -61 182 -152 304 l-75 101 17 32 c29 57 64 88 102 88 27 0 64 11 80 25 9
8 -32 67 -66 93 -71 57 -77 57 -176 16 -75 -31 -117 -56 -191 -115 -7 -5 -33
8 -64 32 -29 22 -58 38 -64 36 -7 -2 -57 20 -112 49 -132 69 -212 93 -375 110
-127 13 -322 19 -331 10z m491 -75 c60 -17 192 -76 261 -117 31 -19 64 -34 74
-34 9 0 44 -25 78 -55 60 -55 92 -62 67 -15 -10 18 -8 24 7 36 33 25 117 71
156 85 22 8 43 22 48 31 6 12 21 18 43 18 33 0 56 -19 84 -68 13 -23 12 -24
-22 -21 -41 4 -69 -18 -122 -98 -28 -42 -39 -51 -52 -44 -26 13 -122 23 -122
12 0 -11 62 -41 87 -41 10 0 43 -25 73 -55 30 -30 59 -55 65 -55 22 0 66 -58
91 -121 39 -100 76 -289 81 -419 6 -149 -12 -346 -42 -465 -29 -115 -90 -272
-117 -302 -12 -12 -22 -34 -23 -48 -4 -30 -22 -55 -40 -55 -19 0 -38 50 -44
115 -7 70 -28 81 -45 25 -32 -103 -139 -238 -249 -312 -109 -74 -358 -181
-494 -212 -159 -36 -410 -31 -577 11 -116 28 -330 149 -453 253 -76 65 -163
165 -163 188 0 5 -9 17 -20 27 -18 16 -20 30 -20 134 1 122 15 334 29 436 11
78 82 320 111 378 l23 45 36 -15 c20 -8 61 -28 91 -43 169 -84 484 -121 865
-101 225 11 308 28 434 87 51 24 97 42 101 39 5 -3 11 -1 15 5 15 24 24 5 30
-67 8 -92 49 -308 70 -374 15 -45 92 -221 109 -247 16 -26 42 17 70 116 16 53
38 110 50 125 20 25 23 26 44 11 38 -26 21 -121 -45 -254 -29 -57 -39 -88 -33
-94 20 -20 45 11 92 117 48 106 67 191 54 241 -13 53 -122 77 -150 34 -8 -13
-25 -69 -38 -125 -12 -57 -25 -103 -28 -103 -6 0 -73 151 -89 200 -21 68 -60
286 -67 377 -6 82 -4 95 14 125 14 22 18 39 12 48 -6 10 -19 3 -55 -33 -66
-65 -200 -131 -316 -157 -116 -26 -398 -42 -594 -34 -246 10 -420 48 -577 125
-190 93 -271 170 -394 378 -66 111 -78 157 -49 181 18 15 22 14 150 -40 96
-40 244 -85 252 -76 3 2 -25 22 -61 43 -54 32 -86 65 -86 88 0 17 240 -27 329
-59 29 -11 48 -13 54 -7 15 15 -7 36 -53 50 -22 6 -40 15 -40 20 0 8 99 61
114 61 4 0 33 15 64 34 35 21 96 45 157 60 177 45 540 49 695 7z m-1394 -1086
c4 -9 -1 -57 -10 -108 -9 -50 -17 -122 -17 -159 -1 -38 -5 -68 -9 -68 -12 0
-40 83 -46 136 -7 58 10 158 31 191 18 26 43 30 51 8z m1534 -1092 c0 -10 8
-51 17 -92 13 -53 22 -75 35 -79 28 -7 24 -80 -5 -120 -82 -111 -259 -184
-441 -183 -164 1 -271 50 -335 155 -32 54 -33 57 -25 128 5 40 8 78 8 83 -1 6
67 10 185 10 142 1 204 5 263 18 75 18 225 69 258 87 24 15 40 12 40 -7z m140
-98 c14 -2 93 -33 175 -70 83 -36 179 -76 215 -90 36 -13 109 -44 162 -70 l97
-46 72 -125 c39 -69 93 -174 119 -232 107 -242 123 -278 136 -297 7 -11 15
-36 19 -56 6 -33 3 -39 -52 -94 -66 -67 -202 -159 -274 -186 -27 -11 -73 -19
-102 -19 -51 0 -53 1 -70 38 -9 20 -26 49 -38 63 -23 30 -34 78 -50 219 -13
127 -15 130 -51 130 l-30 0 7 -47 c4 -27 20 -114 36 -194 29 -149 51 -299 69
-474 12 -106 23 -188 46 -325 28 -171 44 -333 33 -346 -42 -51 -370 -147 -614
-179 -223 -30 -563 -3 -885 69 -132 30 -175 52 -295 149 -125 103 -128 108
-116 188 6 35 15 123 21 194 6 72 20 204 31 295 11 91 26 226 33 301 10 93 21
152 35 185 20 44 17 75 -6 61 -12 -8 -57 -101 -87 -182 -32 -87 -104 -211
-145 -249 l-31 -29 -82 22 c-113 30 -216 90 -309 181 l-77 75 187 378 c144
289 197 388 227 417 39 38 125 76 419 180 44 16 107 40 140 53 33 14 72 27 87
31 27 6 27 6 22 -41 -5 -43 -1 -55 33 -111 27 -47 53 -74 96 -103 82 -54 122
-64 267 -64 105 0 138 4 205 25 102 31 212 104 255 168 37 56 37 90 -4 176
-14 30 -26 57 -26 61 0 3 17 -2 38 -11 20 -8 48 -17 62 -19z m1007 -1143 c16
-47 48 -169 63 -247 7 -33 18 -64 25 -70 7 -5 77 -106 156 -223 157 -235 176
-253 238 -232 20 6 72 10 116 8 l80 -3 -33 -21 c-19 -12 -42 -19 -53 -17 -25
7 -24 -8 1 -40 l21 -26 -59 -30 c-83 -42 -97 -79 -67 -179 23 -76 36 -65 28
23 -7 86 2 104 72 136 95 44 130 8 123 -126 -3 -63 -7 -80 -22 -89 -10 -6 -31
-21 -46 -34 -16 -12 -53 -27 -84 -33 -55 -12 -56 -11 -148 34 -109 54 -162
100 -187 165 -10 26 -29 54 -42 63 -13 9 -64 42 -112 74 -49 32 -130 96 -182
143 -80 73 -102 101 -155 193 -67 116 -140 278 -140 308 0 14 22 30 85 60 96
46 213 122 265 174 19 19 37 33 39 31 3 -3 11 -21 18 -42z m-2949 -118 c70
-67 207 -145 288 -165 27 -6 53 -15 57 -19 5 -4 -4 -39 -21 -76 -16 -38 -35
-85 -43 -104 -24 -63 -128 -193 -282 -353 -105 -110 -160 -175 -178 -212 -28
-58 -45 -74 -159 -153 l-75 -52 -116 39 c-162 54 -159 52 -159 111 0 93 21
116 116 129 52 7 56 6 94 -26 30 -26 44 -49 59 -96 17 -56 19 -59 20 -27 2 68
-17 108 -71 151 -47 37 -57 40 -100 37 -54 -3 -60 4 -23 28 38 25 31 37 -17
30 -37 -5 -82 6 -68 16 33 24 127 52 180 55 87 5 121 25 161 92 19 31 53 86
76 123 24 36 43 70 43 73 0 4 25 43 55 87 47 68 60 99 92 209 20 71 38 129 40
129 2 0 16 -12 31 -26z m770 -1050 c79 -38 220 -74 387 -99 55 -8 126 -19 158
-25 32 -5 138 -12 235 -16 141 -5 203 -3 307 11 121 16 375 75 473 109 42 15
43 15 51 -7 5 -12 20 -49 33 -82 43 -102 150 -429 241 -733 31 -105 27 -121
-55 -193 -105 -93 -145 -116 -276 -160 -143 -49 -201 -53 -352 -28 l-84 14
-29 55 c-16 30 -62 144 -102 252 -41 109 -82 209 -91 223 l-17 25 -33 -25
c-18 -14 -37 -25 -43 -25 -16 0 -37 -48 -93 -208 -65 -188 -109 -277 -147
-297 -23 -11 -64 -15 -168 -15 -151 0 -233 14 -332 54 -67 27 -272 159 -307
198 -35 37 -64 91 -64 117 0 45 52 257 136 551 46 162 84 305 84 318 0 12 3
22 6 22 3 0 40 -16 82 -36z m50 -1209 c85 -35 181 -55 274 -55 90 0 98 -7 98
-91 0 -64 -36 -299 -55 -354 l-13 -40 -74 3 c-86 4 -224 31 -323 64 -65 22
-70 25 -77 58 -10 46 8 280 26 348 19 69 43 105 64 99 10 -3 45 -17 80 -32z
m1686 -72 c50 -158 75 -319 61 -395 -5 -28 -13 -35 -53 -50 -26 -9 -85 -30
-132 -47 -79 -28 -298 -64 -326 -54 -6 2 -21 48 -33 102 -19 83 -22 121 -19
254 2 127 6 159 19 172 12 12 42 18 114 21 90 4 106 8 209 53 61 27 114 49
118 50 4 0 23 -47 42 -106z m-1754 -493 c104 -35 185 -53 260 -59 l75 -6 -2
-65 c-1 -36 -5 -126 -9 -200 l-6 -135 -37 -17 c-72 -34 -91 -20 -92 71 0 37
-6 90 -12 120 l-12 55 -60 14 c-47 11 -70 11 -104 2 -34 -8 -46 -8 -52 1 -4 6
-12 55 -18 108 -7 53 -14 107 -17 120 -4 19 -2 22 13 16 10 -4 43 -15 73 -25z
m1775 -115 c-8 -50 -17 -111 -20 -136 l-6 -47 -48 -6 c-51 -7 -154 -62 -183
-99 -22 -28 -23 -86 -2 -115 12 -18 13 -26 4 -37 -19 -23 -43 -18 -87 20 -44
38 -43 35 -87 270 -10 50 -20 98 -22 108 -5 14 2 17 43 17 56 0 187 34 323 82
52 19 96 34 97 33 1 0 -4 -41 -12 -90z m-1662 -164 c13 -16 27 -47 31 -68 4
-21 9 -51 12 -66 l6 -28 -52 39 c-57 44 -93 55 -142 45 -31 -6 -58 13 -58 43
0 18 50 47 95 55 72 12 83 10 108 -20z m1681 -78 c-8 -35 -22 -53 -41 -53 -21
0 -84 -34 -137 -74 -25 -20 -50 -36 -55 -36 -5 0 -13 12 -18 27 -7 21 -5 35
10 61 37 63 108 99 200 101 47 1 47 1 41 -26z m-1714 -79 c14 -9 54 -44 90
-78 36 -34 59 -54 52 -46 -20 23 -14 30 23 30 20 0 37 6 43 16 12 22 24 5 63
-91 55 -135 42 -215 -39 -252 -50 -22 -409 -26 -435 -4 -23 19 -47 102 -54
192 -5 63 -2 83 15 121 23 54 77 94 150 114 62 17 64 17 92 -2z m1773 -25 c43
-22 77 -63 97 -117 20 -53 46 -243 36 -267 -2 -7 -28 -21 -56 -30 -43 -14 -80
-17 -214 -13 -157 3 -162 4 -228 36 -37 18 -72 42 -78 53 -6 11 -14 59 -17
107 -5 70 -3 90 9 100 12 10 21 9 44 -3 42 -22 53 -19 109 23 28 21 64 45 80
54 110 58 134 68 163 68 18 0 43 -5 55 -11z"/>
<path d="M1744 6473 c-58 -62 -91 -295 -51 -356 28 -44 56 -45 93 -4 48 52 77
156 72 253 -3 71 -6 78 -36 105 -40 36 -47 36 -78 2z m71 -17 c32 -32 40 -82
25 -163 -26 -153 -101 -247 -129 -160 -16 50 -24 127 -14 127 5 0 14 -5 21
-12 27 -27 76 53 70 118 -2 32 -7 40 -25 42 -27 4 -30 28 -6 54 21 24 29 23
58 -6z"/>
<path d="M2650 6458 c-38 -41 -63 -149 -58 -247 6 -98 23 -145 54 -149 53 -8
97 110 98 260 1 83 -2 100 -20 125 -27 36 -47 39 -74 11z m67 -28 c8 -15 13
-65 13 -126 0 -92 -3 -106 -30 -161 -47 -94 -69 -90 -88 14 l-9 52 27 -6 c22
-4 31 1 49 25 35 49 21 162 -20 162 -23 0 -24 18 -3 48 20 28 44 25 61 -8z"/>
<path d="M2134 6006 c-22 -18 -28 -32 -27 -60 2 -54 22 -96 45 -96 17 0 19 4
14 28 -23 91 -16 112 38 112 42 0 64 -18 68 -55 4 -36 31 -41 36 -6 9 63 -31
101 -107 101 -28 0 -48 -7 -67 -24z"/>
<path d="M2435 5759 c-126 -44 -221 -61 -297 -54 -175 16 -201 16 -189 1 6 -8
53 -24 103 -37 84 -20 100 -21 193 -11 71 7 122 19 174 41 41 17 75 31 77 31
24 0 -46 -140 -97 -194 -55 -60 -99 -74 -176 -56 -31 8 -71 24 -90 37 -38 26
-57 30 -51 11 8 -23 66 -55 131 -73 60 -16 68 -16 120 -1 37 11 70 30 101 58
50 47 119 163 130 218 4 19 10 43 12 53 7 25 -14 21 -141 -24z"/>
</g>
</svg>
